HIERARCHY
ROOT lpalm
{
	OFFSET	0.000000	0.000000	0.000000
	CHANNELS	6	Xposition	Yposition	Zposition	Zrotation	Xrotation	Yrotation
	JOINT lthumbA
	{
		OFFSET	-6.570000	-2.200000	3.500000
		CHANNELS	3	Zrotation	Xrotation	Yrotation
		JOINT lthumbB
		{
			OFFSET	0.000000	0.000000	7.000000
			CHANNELS	3	Zrotation	Xrotation	Yrotation
			JOINT lthumbC
			{
				OFFSET	0.000000	0.000000	3.800000
				CHANNELS	3	Zrotation	Xrotation	Yrotation
				End Site
				{
					OFFSET	0.000000	0.000000	3.000000
				}
			}
		}
	}
	JOINT lindexA
	{
		OFFSET	-2.730000	0.000000	10.400000
		CHANNELS	3	Zrotation	Xrotation	Yrotation
		JOINT lindexB
		{
			OFFSET	0.000000	0.000000	4.600000
			CHANNELS	3	Zrotation	Xrotation	Yrotation
			JOINT lindexC
			{
				OFFSET	0.000000	0.000000	3.000000
				CHANNELS	3	Zrotation	Xrotation	Yrotation
				End Site
				{
					OFFSET	0.000000	0.000000	2.600000
				}
			}
		}
	}
	JOINT lmiddleA
	{
		OFFSET	-0.610000	0.000000	10.000000
		CHANNELS	3	Zrotation	Xrotation	Yrotation
		JOINT lmiddleB
		{
			OFFSET	0.000000	0.000000	5.100000
			CHANNELS	3	Zrotation	Xrotation	Yrotation
			JOINT lmiddleC
			{
				OFFSET	0.000000	0.000000	3.100000
				CHANNELS	3	Zrotation	Xrotation	Yrotation
				End Site
				{
					OFFSET	0.000000	0.000000	2.800000
				}
			}
		}
	}
	JOINT lringA
	{
		OFFSET	1.880000	0.000000	9.700000
		CHANNELS	3	Zrotation	Xrotation	Yrotation
		JOINT lringB
		{
			OFFSET	0.000000	0.000000	4.800000
			CHANNELS	3	Zrotation	Xrotation	Yrotation
			JOINT lringC
			{
				OFFSET	0.000000	0.000000	3.000000
				CHANNELS	3	Zrotation	Xrotation	Yrotation
				End Site
				{
					OFFSET	0.000000	0.000000	2.700000
				}
			}
		}
	}
	JOINT llittleA
	{
		OFFSET	3.540000	0.000000	8.600000
		CHANNELS	3	Zrotation	Xrotation	Yrotation
		JOINT llittleB
		{
			OFFSET	0.000000	0.000000	3.800000
			CHANNELS	3	Zrotation	Xrotation	Yrotation
			JOINT llittleC
			{
				OFFSET	0.000000	0.000000	2.300000
				CHANNELS	3	Zrotation	Xrotation	Yrotation
				End Site
				{
					OFFSET	0.000000	0.000000	2.400000
				}
			}
		}
	}
}
MOTION
Frames:	25
Frame Time:	0.013582
0.00	0.00	0.00	0.47	-8.58	3.12	11.17	11.88	3.89	-12.29	-8.67	34.67	0.00	0.00	15.79	0.00	48.50	6.70	0.00	45.11	0.00	0.00	7.80	0.00	0.00	84.55	0.58	0.00	73.83	0.00	0.00	18.09	0.00	-180.00	89.58	180.00	0.00	62.14	0.00	0.00	11.65	0.00	0.00	86.94	0.00	0.00	61.66	0.00	0.00	11.65	0.00
0.00	0.00	0.00	0.45	-8.54	2.99	10.19	10.85	3.89	-12.33	-8.61	34.43	0.00	0.00	15.66	0.00	48.52	6.61	0.00	44.96	0.00	0.00	7.78	0.00	0.00	84.56	0.55	0.00	73.81	0.00	0.00	18.09	0.00	180.00	89.52	-180.00	0.00	62.14	0.00	0.00	11.64	0.00	0.00	86.82	0.00	0.00	61.76	0.00	0.00	11.63	0.00
0.00	0.00	0.00	0.42	-8.47	2.80	8.54	9.03	3.23	-12.37	-8.55	34.14	0.00	0.00	15.51	0.00	48.56	6.52	0.00	44.82	0.00	0.00	7.76	0.00	0.00	84.52	0.51	0.00	73.83	0.00	0.00	18.09	0.00	-180.00	89.42	180.00	0.00	62.12	0.00	0.00	11.64	0.00	0.00	86.79	0.00	0.00	61.85	0.00	0.00	11.65	0.00
0.00	0.00	0.00	0.39	-8.34	2.63	7.27	7.63	2.53	-12.38	-8.53	34.06	0.00	0.00	15.32	0.00	48.43	6.37	0.00	44.75	0.00	0.00	7.76	0.00	0.00	84.46	0.49	0.00	73.86	0.00	0.00	18.09	0.00	180.00	89.49	-180.00	0.00	62.10	0.00	0.00	11.62	0.00	0.00	86.76	0.00	0.00	61.88	0.00	0.00	11.61	0.00
0.00	0.00	0.00	0.36	-8.21	2.48	5.92	6.19	1.72	-12.40	-8.51	33.93	0.00	0.00	15.23	0.00	48.44	6.31	0.00	44.73	0.00	0.00	7.74	0.00	0.00	84.39	0.46	0.00	73.81	0.00	0.00	18.09	0.00	-180.00	89.51	180.00	0.00	62.07	0.00	0.00	11.59	0.00	0.00	86.64	0.00	0.00	61.88	0.00	0.00	11.57	0.00
0.00	0.00	0.00	0.34	-8.18	2.36	5.01	5.23	1.24	-12.42	-8.48	33.81	0.00	0.00	15.17	0.00	48.44	6.32	0.00	44.75	0.00	0.00	7.74	0.00	0.00	84.45	0.44	0.00	73.84	0.00	0.00	18.09	0.00	180.00	89.53	-180.00	0.00	62.05	0.00	0.00	11.59	0.00	0.00	86.61	0.00	0.00	61.87	0.00	0.00	11.57	0.00
0.00	0.00	0.00	0.30	-8.03	2.12	3.09	3.28	0.45	-12.41	-8.49	33.88	0.00	0.00	15.00	0.00	48.38	6.17	0.00	44.89	0.00	0.00	7.75	0.00	0.00	84.27	0.42	0.00	73.89	0.00	0.00	18.07	0.00	180.00	89.66	-180.00	0.00	62.00	0.00	0.00	11.57	0.00	0.00	86.46	0.00	0.00	61.95	0.00	0.00	11.57	0.00
0.00	0.00	0.00	0.27	-7.96	1.95	1.75	1.94	-0.25	-12.40	-8.51	33.93	0.00	0.00	14.88	0.00	48.36	6.19	0.00	44.92	0.00	0.00	7.78	0.00	0.00	84.19	0.42	0.00	73.86	0.00	0.00	18.05	0.00	-180.00	89.69	180.00	0.00	61.98	0.00	0.00	11.59	0.00	0.00	86.34	0.00	0.00	61.97	0.00	0.00	11.52	0.00
0.00	0.00	0.00	0.25	-7.95	1.80	0.38	0.60	-1.02	-12.39	-8.52	33.98	0.00	0.00	14.78	0.00	48.43	6.16	0.00	44.96	0.00	0.00	7.79	0.00	0.00	84.21	0.41	0.00	73.84	0.00	0.00	18.07	0.00	180.00	89.66	-180.00	0.00	62.00	0.00	0.00	11.57	0.00	0.00	86.36	0.00	0.00	61.99	0.00	0.00	11.52	0.00
0.00	0.00	0.00	0.25	-8.02	1.75	-0.67	-0.39	-1.67	-12.39	-8.52	33.99	0.00	0.00	14.77	0.00	48.44	6.23	0.00	44.99	0.00	0.00	7.78	0.00	0.00	84.32	0.41	0.00	73.86	0.00	0.00	18.09	0.00	-180.00	89.60	180.00	0.00	62.00	0.00	0.00	11.59	0.00	0.00	86.51	0.00	0.00	61.94	0.00	0.00	11.50	0.00
0.00	0.00	0.00	0.26	-8.13	1.83	-0.65	-0.36	-1.62	-12.38	-8.54	34.08	0.00	0.00	14.87	0.00	48.61	6.27	0.00	44.96	0.00	0.00	7.80	0.00	0.00	84.51	0.43	0.00	73.81	0.00	0.00	18.11	0.00	-180.00	89.58	180.00	0.00	61.96	0.00	0.00	11.57	0.00	0.00	86.69	0.00	0.00	61.87	0.00	0.00	11.52	0.00
0.00	0.00	0.00	0.29	-8.28	1.98	0.47	0.72	-0.64	-12.34	-8.59	34.33	0.00	0.00	15.00	0.00	48.80	6.40	0.00	44.89	0.00	0.00	7.78	0.00	0.00	84.65	0.47	0.00	73.79	0.00	0.00	18.14	0.00	180.00	89.52	-180.00	0.00	62.00	0.00	0.00	11.55	0.00	0.00	86.85	0.00	0.00	61.74	0.00	0.00	11.55	0.00
0.00	0.00	0.00	0.32	-8.41	2.17	2.10	2.35	0.52	-12.30	-8.66	34.62	0.00	0.00	15.17	0.00	48.90	6.45	0.00	44.82	0.00	0.00	7.80	0.00	0.00	84.78	0.50	0.00	73.79	0.00	0.00	18.16	0.00	180.00	89.53	-180.00	0.00	62.05	0.00	0.00	11.55	0.00	0.00	86.93	0.00	0.00	61.68	0.00	0.00	11.57	0.00
0.00	0.00	0.00	0.35	-8.50	2.37	3.87	4.14	1.54	-12.27	-8.70	34.83	0.00	0.00	15.32	0.00	48.89	6.53	0.00	44.75	0.00	0.00	7.76	0.00	0.00	84.88	0.53	0.00	73.77	0.00	0.00	18.20	0.00	180.00	89.54	-180.00	0.00	62.05	0.00	0.00	11.55	0.00	0.00	86.96	0.00	0.00	61.54	0.00	0.00	11.57	0.00
0.00	0.00	0.00	0.39	-8.64	2.60	6.97	7.40	2.92	-12.23	-8.75	35.04	0.00	0.00	15.57	0.00	48.91	6.74	0.00	44.68	0.00	0.00	7.78	0.00	0.00	84.94	0.58	0.00	73.76	0.00	0.00	18.24	0.00	180.00	89.52	-180.00	0.00	62.05	0.00	0.00	11.54	0.00	0.00	86.92	0.00	0.00	61.40	0.00	0.00	11.55	0.00
0.00	0.00	0.00	0.41	-8.66	2.67	8.14	8.63	3.29	-12.23	-8.75	35.08	0.00	0.00	15.72	0.00	48.85	6.82	0.00	44.64	0.00	0.00	7.78	0.00	0.00	84.95	0.61	0.00	73.77	0.00	0.00	18.24	0.00	180.00	89.57	-180.00	0.00	62.05	0.00	0.00	11.55	0.00	0.00	86.87	0.00	0.00	61.38	0.00	0.00	11.55	0.00
0.00	0.00	0.00	0.42	-8.74	2.74	9.00	9.58	3.61	-12.24	-8.74	35.01	0.00	0.00	15.83	0.00	48.88	6.83	0.00	44.61	0.00	0.00	7.75	0.00	0.00	84.99	0.63	0.00	73.83	0.00	0.00	18.27	0.00	180.00	89.60	-180.00	0.00	62.10	0.00	0.00	11.55	0.00	0.00	86.88	0.00	0.00	61.36	0.00	0.00	11.57	0.00
0.00	0.00	0.00	0.43	-8.84	2.77	9.41	10.03	3.73	-12.26	-8.71	34.89	0.00	0.00	15.94	0.00	48.88	6.86	0.00	44.57	0.00	0.00	7.79	0.00	0.00	85.06	0.65	0.00	73.88	0.00	0.00	18.22	0.00	-180.00	89.56	-180.00	0.00	62.14	0.00	0.00	11.59	0.00	0.00	86.93	0.00	0.00	61.33	0.00	0.00	11.57	0.00
0.00	0.00	0.00	0.44	-8.91	2.78	9.42	10.04	3.74	-12.30	-8.65	34.59	0.00	0.00	16.03	0.00	48.94	6.98	0.00	44.57	0.00	0.00	7.76	0.00	0.00	85.18	0.65	0.00	73.93	0.00	0.00	18.20	0.00	180.00	89.50	-180.00	0.00	62.14	0.00	0.00	11.59	0.00	0.00	87.02	0.00	0.00	61.33	0.00	0.00	11.57	0.00
0.00	0.00	0.00	0.44	-8.91	2.79	9.48	10.10	3.72	-12.33	-8.60	34.38	0.00	0.00	16.06	0.00	48.91	6.92	0.00	44.54	0.00	0.00	7.78	0.00	0.00	85.24	0.64	0.00	73.95	0.00	0.00	18.18	0.00	-180.00	89.43	180.00	0.00	62.14	0.00	0.00	11.59	0.00	0.00	87.07	0.00	0.00	61.33	0.00	0.00	11.57	0.00
0.00	0.00	0.00	0.43	-8.90	2.76	9.25	9.83	3.53	-12.35	-8.58	34.26	0.00	0.00	16.05	0.00	49.00	6.91	0.00	44.52	0.00	0.00	7.72	0.00	0.00	85.25	0.63	0.00	73.98	0.00	0.00	18.16	0.00	-180.00	89.40	180.00	0.00	62.12	0.00	0.00	11.59	0.00	0.00	87.15	0.00	0.00	61.35	0.00	0.00	11.57	0.00
0.00	0.00	0.00	0.44	-9.07	2.75	8.73	9.26	3.28	-12.38	-8.54	34.06	0.00	0.00	16.11	0.00	49.32	6.80	0.00	44.51	0.00	0.00	7.76	0.00	0.00	85.50	0.63	0.00	73.95	0.00	0.00	18.16	0.00	-180.00	89.23	180.00	0.00	62.12	0.00	0.00	11.55	0.00	0.00	87.38	0.00	0.00	61.23	0.00	0.00	11.57	0.00
0.00	0.00	0.00	0.46	-9.31	2.80	8.81	9.36	3.38	-12.40	-8.51	33.95	0.00	0.00	16.21	0.00	49.65	6.70	0.00	44.44	0.00	0.00	7.76	0.00	0.00	85.80	0.63	0.00	73.91	0.00	0.00	18.14	0.00	180.00	89.02	-180.00	0.00	62.12	0.00	0.00	11.54	0.00	0.00	87.51	0.00	0.00	61.19	0.00	0.00	11.57	0.00
0.00	0.00	0.00	0.48	-9.60	2.85	8.98	9.57	3.50	-12.42	-8.48	33.82	0.00	0.00	16.32	0.00	50.03	6.70	0.00	44.31	0.00	0.00	7.75	0.00	0.00	86.13	0.63	0.00	73.91	0.00	0.00	18.14	0.00	-180.00	88.76	180.00	0.00	62.05	0.00	0.00	11.52	0.00	0.00	87.77	0.00	0.00	61.05	0.00	0.00	11.52	0.00
0.00	0.00	0.00	0.49	-9.80	2.87	8.80	9.39	3.50	-12.44	-8.44	33.65	0.00	0.00	16.42	0.00	50.32	6.55	0.00	44.18	0.00	0.00	7.75	0.00	0.00	86.39	0.63	0.00	73.83	0.00	0.00	18.14	0.00	-180.00	88.62	180.00	0.00	62.05	0.00	0.00	11.49	0.00	0.00	87.98	0.00	0.00	60.97	0.00	0.00	11.55	0.00
